# AST/ASF file generated using VICON BodyLanguage
# -----------------------------------------------
:version 1.10
:name VICON
:units
  mass 1.0
  length 0.45
  angle deg
:documentation
   .ast/.asf automatically generated from VICON data using
   VICON BodyBuilder and BodyLanguage model FoxedUp or BRILLIANT.MOD
:root
   order TX TY TZ RX RY RZ
   axis XYZ
   position 0 0 0  
   orientation 0 0 0 
:bonedata
  begin
     id 1 
     name lhipjoint
     direction 0.722297 -0.617336 0.311742 
     length 2.6635 
     axis 0 0 0  XYZ
  end
  begin
     id 2 
     name lfemur
     direction 0.34202 -0.939693 0  
     length 7.39349  
     axis 0 0 20  XYZ
    dof rx ry rz
    limits (-160.0 20.0)
           (-70.0 70.0)
           (-60.0 70.0)
  end
  begin
     id 3 
     name ltibia
     direction 0.34202 -0.939693 0   
     length 7.36294   
     axis 0 0 20   XYZ
    dof rx
    limits (-10.0 170.0)
  end
  begin
     id 4 
     name lfoot
     direction 0.104879 -0.288152 0.951824   
     length 2.16981   
     axis -90 7.62852e-016 20   XYZ
    dof rx rz
    limits (-45.0 90.0)
           (-70.0 20.0)
  end
  begin
     id 5 
     name ltoes
     direction 1.53586e-011 -4.21895e-011 1   
     length 1.08218   
     axis -90 7.62852e-016 20   XYZ
    dof rx
    limits (-90.0 20.0)
  end
  begin
     id 6 
     name rhipjoint
     direction -0.75102 -0.589393 0.297631   
     length 2.78977  
     axis 0 0 0  XYZ 
  end
  begin
     id 7 
     name rfemur
     direction -0.34202 -0.939693 0   
     length 7.46076   
     axis 0 0 -20   XYZ
    dof rx ry rz
    limits (-160.0 20.0)
           (-70.0 70.0)
           (-70.0 60.0)
  end
  begin
     id 8 
     name rtibia
     direction -0.34202 -0.939693 0   
     length 7.31726   
     axis 0 0 -20   XYZ
    dof rx
    limits (-10.0 170.0)
 end
 begin
     id 9 
     name rfoot
     direction -0.107991 -0.296704 0.948844   
     length 2.09388  
     axis -90 -7.62852e-016 -20   XYZ
    dof rx rz
    limits (-45.0 90.0)
           (-20.0 70.0)
  end
  begin
     id 10 
     name rtoes
     direction -1.53559e-011 -4.21911e-011 1   
     length 1.04433   
     axis -90 -7.62852e-016 -20   XYZ
    dof rx
    limits (-90.0 20.0)
  end
  begin
     id 11 
     name lowerback
     direction 0.0165164 0.98272 0.184358   
     length 1.71896   
     axis 0 0 0   XYZ
    dof rx ry rz
    limits (-20.0 45.0)
           (-30.0 30.0)
           (-30.0 30.0)
  end
  begin
     id 12 
     name upperback
     direction -0.00887249 0.992297 0.123566   
     length 1.71504   
     axis 0 0 0   XYZ
    dof rx ry rz
    limits (-20.0 45.0)
           (-30.0 30.0)
           (-30.0 30.0)
  end
  begin
     id 13 
     name thorax
     direction -0.0157026 0.998908 0.0440032   
     length 1.77022   
     axis 0 0 0   XYZ
    dof rx ry rz
    limits (-20.0 45.0)
           (-30.0 30.0)
           (-30.0 30.0)
  end
  begin
     id 14 
     name lowerneck
     direction -0.0238856 0.998137 0.0561411   
     length 1.89341   
     axis 0 0 0   XYZ
    dof rx ry rz
    limits (-20.0 45.0)
           (-30.0 30.0)
           (-30.0 30.0)
  end
  begin
     id 15 
     name upperneck
     direction 0.0276574 0.952253 -0.304056   
     length 1.86999   
     axis 0 0 0   XYZ
    dof rx ry rz
    limits (-20.0 45.0)
           (-30.0 30.0)
           (-30.0 30.0)
  end
  begin
     id 16
     name head
     direction 0.00800083 0.994258 -0.106712  
     length 1.91492  
     axis 0 0 0   XYZ
    dof rx ry rz
    limits (-20.0 45.0)
           (-30.0 30.0)
           (-30.0 30.0)
  end
  begin
     id 17 
     name lclavicle
     direction 0.97203 0.225407 0.06595  
     length 3.34889  
     axis 0 0 0   XYZ
    dof ry rz
    limits (-20.0 10.0)
           (0.0 20.0)
  end
  begin
     id 18 
     name lhumerus
     direction 1 -4.48973e-011 2.20267e-027   
     length 4.85645   
     axis 180 -30 -90   XYZ
    dof rx ry rz
    limits (-60.0 90.0)
           (-90.0 90.0)
           (-90.0 90.0)
  end
  begin
     id 19
     name lradius
     direction 1 -4.4897e-011 4.60472e-027   
     length 2.79874   
     axis 180 -30 -90   XYZ
    dof rx
    limits (-10.0 170.0)
  end
  begin
     id 20
     name lwrist
     direction 1 -4.48952e-011 1.14928e-026   
     length 1.39937   
     axis -6.29373e-015 90 90   XYZ
    dof ry
    limits (-180.0 0.0)
 end
  begin
     id 21 
     name lhand
     direction 1 -4.48967e-011 2.29886e-026   
     length 0.573398   
     axis -1.46689e-014 90 90   XYZ
    dof rx rz
    limits (-90.0 90.0)
           (-45.0 45.0)
  end
  begin
     id 22 
     name lfingers
     direction 1 -4.48955e-011 4.59726e-026   
     length 0.462289   
     axis -2.93383e-014 90 90   XYZ
    dof rx
    limits (0.0 90.0)
  end
  begin
     id 23
     name lthumb
     direction 0.707107 -6.34866e-011 0.707107   
     length 0.663757   
     axis -90 45 5.69224e-014   XYZ
    dof rx rz
    limits (-45.0 45.0)
           (-45.0 45.0)
  end
  begin
     id 24 
     name rclavicle
     direction -0.981571 0.157346 0.108443   
     length 3.35257  
     axis 0 0 0   XYZ 
    dof ry rz
    limits (-10.0 20.0)
           (-20.0 0.0)
  end
  begin
     id 25 
     name rhumerus
     direction -1 -4.48967e-011 8.58308e-029  
     length 4.67018   
     axis 180 30 90   XYZ
    dof rx ry rz
    limits (-90.0 60.0)
           (-90.0 90.0)
           (-90.0 90.0)
  end
  begin
     id 26 
     name rradius
     direction -1 -4.48958e-011 4.52548e-027   
     length 2.65534   
     axis 180 30 90   XYZ
    dof rx
    limits (-10.0 170.0)
  end
  begin
     id 27 
     name rwrist
     direction -1 -4.48977e-011 1.14952e-026   
     length 1.32767   
     axis -6.29373e-015 -90 -90   XYZ
    dof ry
    limits (-180.0 0.0)
  end
  begin
     id 28
     name rhand
     direction -1 -4.48924e-011 2.29804e-026   
     length 0.594069   
     axis -1.46689e-014 -90 -90   XYZ
    dof rx rz
    limits (-90.0 90.0)
           (-45.0 45.0)
  end
  begin
     id 29
     name rfingers
     direction -1 -4.48998e-011 4.59888e-026   
     length 0.478954   
     axis -2.93383e-014 -90 -90   XYZ
    dof rx
    limits (0.0 90.0)
  end
  begin
     id 30
     name rthumb
     direction -0.707107 -6.34933e-011 0.707107   
     length 0.687685   
     axis -90 -45 -5.69224e-014   XYZ
    dof rx rz
    limits (-45.0 45.0)
           (-45.0 45.0)
  end
:hierarchy
  begin
    root lhipjoint rhipjoint lowerback
    lhipjoint lfemur
    lfemur ltibia
    ltibia lfoot
    lfoot ltoes
    rhipjoint rfemur
    rfemur rtibia
    rtibia rfoot
    rfoot rtoes
    lowerback upperback
    upperback thorax
    thorax lowerneck lclavicle rclavicle
    lowerneck upperneck
    upperneck head
    lclavicle lhumerus
    lhumerus lradius
    lradius lwrist
    lwrist lhand lthumb
    lhand lfingers
    rclavicle rhumerus
    rhumerus rradius
    rradius rwrist
    rwrist rhand rthumb
    rhand rfingers
  end

#!OML:ASF E:\pregnant2\Project 1\Capture day 1\Session 1\pregnant2.ASF
:FULLY-SPECIFIED
:DEGREES
979
root 5.10977 16.7574 14.7721 36.1449 -4.0282 361.388
lowerback -22.6389 0.12861 -3.76405
upperback -16.1242 0.775342 -0.354651
thorax -5.24946 0.693886 1.8683
lowerneck -12.2879 -3.53881 -5.37344
upperneck 42.8614 -3.93312 -0.0216179
head 18.257 -2.50791 0.222726
rclavicle -3.91823e-015 -1.75179e-015
rhumerus -83.1058 34.2493 -105.489
rradius 88.8471
rwrist -44.7588
rhand 10.5161 -22.7423
rfingers 7.12502
rthumb 35.6157 -49.1523
lclavicle -3.91823e-015 -1.75179e-015
lhumerus -89.0744 -36.0692 106.784
lradius 97.772
lwrist 46.7948
lhand 10.151 35.5554
lfingers 7.12502
lthumb 35.2696 62.0481
rfemur -52.1369 -2.17092 20.5459
rtibia 68.1796
rfoot -1.95245 -1.94289
rtoes -13.2496
lfemur -61.1002 -7.58579 -22.2884
ltibia 34.4326
lfoot -6.60456 8.08154
ltoes -12.7412
980
root 5.12234 16.7415 14.8904 36.9313 -4.10588 361.498
lowerback -23.4613 0.0357663 -3.87125
upperback -16.2754 0.703202 -0.365375
thorax -5.02997 0.663131 1.91272
lowerneck -12.2994 -3.49224 -5.3124
upperneck 42.9335 -3.8768 -0.0332216
head 18.2989 -2.47791 0.215549
rclavicle 9.68765e-015 -3.62782e-015
rhumerus -83.137 34.2523 -105.775
rradius 88.3614
rwrist -44.5922
rhand 9.44247 -23.4744
rfingers 7.12502
rthumb 34.5974 -50.1235
lclavicle 9.68765e-015 -3.62782e-015
lhumerus -89.2204 -36.3836 107.144
lradius 97.5767
lwrist 47.0523
lhand 9.19904 36.0746
lfingers 7.12502
lthumb 34.3663 62.7763
rfemur -54.3313 -2.18694 20.4355
rtibia 69.7632
rfoot -2.62733 -3.42321
rtoes -12.4817
lfemur -61.7678 -7.45188 -22.6602
ltibia 34.931
lfoot -7.25868 7.96402
ltoes -12.8444
981
root 5.13374 16.7252 15.0077 37.7477 -4.15779 361.534
lowerback -24.2961 -0.0376037 -3.8992
upperback -16.4371 0.644221 -0.363163
thorax -4.82025 0.633276 1.92774
lowerneck -12.3225 -3.44904 -5.25386
upperneck 43.0298 -3.82992 -0.0329671
head 18.3599 -2.45059 0.212048
rclavicle -1.3713e-014 3.27995e-015
rhumerus -83.1498 34.2323 -106.029
rradius 87.8221
rwrist -44.4879
rhand 8.51069 -24.1487
rfingers 7.12502
rthumb 33.7124 -50.9958
lclavicle -1.3713e-014 3.27995e-015
lhumerus -89.4065 -36.7011 107.525
lradius 97.3269
lwrist 47.1914
lhand 8.25327 36.5516
lfingers 7.12502
lthumb 33.4678 63.4519
rfemur -56.5281 -2.10822 20.3935
rtibia 71.1473
rfoot -3.2055 -4.92944
rtoes -11.4208
lfemur -62.494 -7.28508 -22.9597
ltibia 35.4744
lfoot -7.92385 7.83912
ltoes -12.9326
982
root 5.14418 16.7079 15.1233 38.5844 -4.17998 361.5
lowerback -25.1251 -0.0915543 -3.85026
upperback -16.6038 0.595898 -0.343683
thorax -4.62298 0.603602 1.91911
lowerneck -12.3676 -3.4095 -5.20796
upperneck 43.1415 -3.78846 -0.0215723
head 18.4381 -2.42593 0.214382
rclavicle 8.16881e-016 -2.5842e-015
rhumerus -83.1451 34.2009 -106.244
rradius 87.2634
rwrist -44.4441
rhand 7.68349 -24.6918
rfingers 7.12502
rthumb 32.926 -51.7076
lclavicle 8.16881e-016 -2.5842e-015
lhumerus -89.6126 -37.0082 107.918
lradius 97.0085
lwrist 47.1781
lhand 7.39361 36.9366
lfingers 7.12502
lthumb 32.6503 64.01
rfemur -58.7114 -1.96289 20.4174
rtibia 72.3231
rfoot -3.68836 -6.34881
rtoes -10.4145
lfemur -63.2777 -7.12853 -23.1515
ltibia 36.068
lfoot -8.5817 7.76316
ltoes -13.0402
983
root 5.15393 16.6886 15.2369 39.4085 -4.18615 361.407
lowerback -25.908 -0.12117 -3.73578
upperback -16.7725 0.562956 -0.311824
thorax -4.45381 0.577472 1.88883
lowerneck -12.4267 -3.37152 -5.1607
upperneck 43.2636 -3.74851 -0.011812
head 18.527 -2.40183 0.215033
rclavicle -5.48211e-015 -3.2054e-015
rhumerus -83.1366 34.1503 -106.415
rradius 86.7378
rwrist -44.4521
rhand 6.98291 -25.1118
rfingers 7.12502
rthumb 32.2594 -52.2654
lclavicle -5.48211e-015 -3.2054e-015
lhumerus -89.8441 -37.2936 108.314
lradius 96.6323
lwrist 47.0011
lhand 6.68709 37.2044
lfingers 7.12502
lthumb 31.9778 64.4148
rfemur -60.8407 -1.77029 20.4914
rtibia 73.2903
rfoot -4.13046 -7.56931
rtoes -9.57788
lfemur -64.0838 -7.00994 -23.2226
ltibia 36.7142
lfoot -9.22221 7.7849
ltoes -13.1775
984
root 5.16342 16.6678 15.3487 40.1853 -4.18714 361.268
lowerback -26.6108 -0.124084 -3.56829
upperback -16.9344 0.548253 -0.271247
thorax -4.31769 0.557145 1.84081
lowerneck -12.4934 -3.33443 -5.11326
upperneck 43.3809 -3.7066 -0.00827647
head 18.6153 -2.37761 0.213037
rclavicle -5.89521e-015 -3.42904e-015
rhumerus -83.1294 34.0802 -106.533
rradius 86.2862
rwrist -44.4721
rhand 6.44501 -25.4094
rfingers 7.12502
rthumb 31.7473 -52.6657
lclavicle -5.89521e-015 -3.42904e-015
lhumerus -90.0931 -37.5518 108.704
lradius 96.2094
lwrist 46.6789
lhand 6.18306 37.3444
lfingers 7.12502
lthumb 31.4977 64.6498
rfemur -62.8729 -1.54701 20.5972
rtibia 74.0474
rfoot -4.57629 -8.52534
rtoes -8.90163
lfemur -64.868 -6.93586 -23.1862
ltibia 37.4027
lfoot -9.84153 7.91515
ltoes -13.3301
985
root 5.173 16.6461 15.4591 40.8811 -4.18968 361.101
lowerback -27.201 -0.10041 -3.36079
upperback -17.0825 0.552548 -0.228169
thorax -4.2202 0.543697 1.77596
lowerneck -12.5575 -3.29827 -5.06356
upperneck 43.4799 -3.66252 -0.0139473
head 18.6915 -2.35323 0.207019
rclavicle 3.88873e-015 7.15625e-015
rhumerus -83.1307 33.9895 -106.599
rradius 85.9415
rwrist -44.463
rhand 6.09164 -25.5608
rfingers 7.12502
rthumb 31.4106 -52.8832
lclavicle 3.88873e-015 7.15625e-015
lhumerus -90.3593 -37.7772 109.078
lradius 95.7644
lwrist 46.2536
lhand 5.92147 37.3649
lfingers 7.12502
lthumb 31.2485 64.7187
rfemur -64.7669 -1.30008 20.7123
rtibia 74.5926
rfoot -5.03464 -9.21291
rtoes -8.38559
lfemur -65.578 -6.89999 -23.0743
ltibia 38.1095
lfoot -10.4363 8.13857
ltoes -13.4761
986
root 5.18299 16.6252 15.5691 41.4555 -4.20437 360.924
lowerback -27.6529 -0.0540963 -3.13121
upperback -17.2054 0.573967 -0.185351
thorax -4.15815 0.537232 1.70117
lowerneck -12.5943 -3.26155 -5.02326
upperneck 43.5399 -3.61429 -0.0217428
head 18.7359 -2.32892 0.20361
rclavicle -4.14652e-015 -1.42628e-014
rhumerus -83.1461 33.8888 -106.618
rradius 85.7241
rwrist -44.4067
rhand 5.94017 -25.6035
rfingers 7.12502
rthumb 31.2663 -52.9539
lclavicle -4.14652e-015 -1.42628e-014
lhumerus -90.6328 -37.9644 109.434
lradius 95.3159
lwrist 45.7984
lhand 5.89713 37.2958
lfingers 7.12502
lthumb 31.2253 64.6541
rfemur -66.4731 -1.03532 20.8102
rtibia 74.92
rfoot -5.5003 -9.66489
rtoes -8.07933
lfemur -66.1471 -6.88978 -22.9305
ltibia 38.8032
lfoot -11.0172 8.4303
ltoes -13.5722
987
root 5.19343 16.6067 15.6796 41.8761 -4.23799 360.754
lowerback -27.9434 0.00733715 -2.90004
upperback -17.2942 0.607567 -0.145612
thorax -4.12989 0.536621 1.6238
lowerneck -12.6245 -3.22421 -4.98432
upperneck 43.5709 -3.56054 -0.0382838
head 18.7597 -2.30364 0.197869
rclavicle -6.31141e-015 -6.36111e-015
rhumerus -83.1762 33.7857 -106.597
rradius 85.6458
rwrist -44.3132
rhand 5.96828 -25.5337
rfingers 7.12502
rthumb 31.2931 -52.8789
lclavicle -6.31141e-015 -6.36111e-015
lhumerus -90.915 -38.1143 109.77
lradius 94.8975
lwrist 45.4083
lhand 6.05697 37.152
lfingers 7.12502
lthumb 31.3776 64.4808
rfemur -67.9481 -0.762029 20.8699
rtibia 75.026
rfoot -5.96862 -9.92624
rtoes -7.97104
lfemur -66.5162 -6.89202 -22.7974
ltibia 39.4512
lfoot -11.591 8.75619
ltoes -13.6032
988
root 5.20399 16.5913 15.7912 42.1348 -4.28856 360.606
lowerback -28.0739 0.0718588 -2.68532
upperback -17.3471 0.643255 -0.106514
thorax -4.13135 0.538318 1.55436
lowerneck -12.6535 -3.18139 -4.93753
upperneck 43.5798 -3.49361 -0.0698255
head 18.768 -2.27369 0.186384
rclavicle 1.49089e-015 8.49804e-015
rhumerus -83.2132 33.69 -106.54
rradius 85.7037
rwrist -44.2306
rhand 6.11855 -25.3726
rfingers 7.12502
rthumb 31.4363 -52.69
lclavicle 1.49089e-015 8.49804e-015
lhumerus -91.1894 -38.2144 110.067
lradius 94.5417
lwrist 45.1729
lhand 6.33319 36.9839
lfingers 7.12502
lthumb 31.6408 64.2612
rfemur -69.1793 -0.492048 20.8861
rtibia 74.9152
rfoot -6.45016 -10.0477
rtoes -8.02265
lfemur -66.6596 -6.89502 -22.7086
ltibia 40.0288
lfoot -12.1593 9.08808
ltoes -13.6189
989
root 5.21454 16.58 15.9051 42.2129 -4.36269 360.483
lowerback -28.0417 0.134822 -2.49734
upperback -17.3571 0.678594 -0.0672627
thorax -4.15493 0.541856 1.4989
lowerneck -12.7131 -3.13073 -4.86333
upperneck 43.5931 -3.40827 -0.131447
head 18.7852 -2.23577 0.158387
rclavicle 1.15047e-014 7.90169e-015
rhumerus -83.2525 33.6107 -106.458
rradius 85.8875
rwrist -44.2075
rhand 6.32544 -25.171
rfingers 7.12502
rthumb 31.6334 -52.4498
lclavicle 1.15047e-014 7.90169e-015
lhumerus -91.4499 -38.2629 110.321
lradius 94.2733
lwrist 45.1742
lhand 6.63348 36.8338
lfingers 7.12502
lthumb 31.9267 64.0544
rfemur -70.1389 -0.228078 20.8565
rtibia 74.5915
rfoot -6.94171 -10.0774
rtoes -8.18743
lfemur -66.5429 -6.88523 -22.6855
ltibia 40.5214
lfoot -12.7297 9.40601
ltoes -13.6255
990
root 5.22454 16.5726 16.0208 42.1348 -4.45573 360.389
lowerback -27.8683 0.188314 -2.34688
upperback -17.3306 0.707343 -0.0282056
thorax -4.19866 0.545071 1.46168
lowerneck -12.7849 -3.07129 -4.77934
upperneck 43.6005 -3.30922 -0.198059
head 18.8012 -2.19134 0.128726
rclavicle -7.73397e-015 -2.33572e-015
rhumerus -83.279 33.5476 -106.348
rradius 86.1782
rwrist -44.2671
rhand 6.55692 -24.9851
rfingers 7.12502
rthumb 31.8538 -52.2203
lclavicle -7.73397e-015 -2.33572e-015
lhumerus -91.6889 -38.2633 110.523
lradius 94.1154
lwrist 45.4582
lhand 6.88098 36.7428
lfingers 7.12502
lthumb 32.1624 63.916
rfemur -70.8568 0.0242917 20.7869
rtibia 74.0685
rfoot -7.44026 -10.0575
rtoes -8.4364
lfemur -66.1912 -6.85458 -22.7405
ltibia 40.9231
lfoot -13.2957 9.69229
ltoes -13.644
991
root 5.23362 16.5683 16.1382 41.9293 -4.56134 360.328
lowerback -27.582 0.227265 -2.23939
upperback -17.2731 0.725368 0.0102417
thorax -4.25711 0.54636 1.44454
lowerneck -12.8701 -3.0043 -4.68714
upperneck 43.6035 -3.20102 -0.262767
head 18.8178 -2.14153 0.100104
rclavicle 3.24889e-015 5.1684e-015
rhumerus -83.2853 33.5017 -106.215
rradius 86.5471
rwrist -44.3914
rhand 6.78267 -24.8147
rfingers 7.12502
rthumb 32.0688 -52.0068
lclavicle 3.24889e-015 5.1684e-015
lhumerus -91.8992 -38.2224 110.67
lradius 94.0727
lwrist 46.0254
lhand 7.03955 36.7381
lfingers 7.12502
lthumb 32.3133 63.8807
rfemur -71.3707 0.261386 20.6842
rtibia 73.3638
rfoot -7.94085 -10.0236
rtoes -8.7425
lfemur -65.6362 -6.80342 -22.8712
ltibia 41.2267
lfoot -13.8472 9.94043
ltoes -13.6972
992
root 5.24178 16.5668 16.2571 41.6171 -4.66681 360.308
lowerback -27.2021 0.246895 -2.17627
upperback -17.1901 0.727351 0.0455419
thorax -4.32855 0.54306 1.44449
lowerneck -12.9543 -2.93551 -4.59795
upperneck 43.5976 -3.09371 -0.317254
head 18.8292 -2.09117 0.076955
rclavicle 2.67117e-015 3.47873e-015
rhumerus -83.2698 33.4731 -106.063
rradius 86.9647
rwrist -44.5231
rhand 7.03813 -24.6739
rfingers 7.12502
rthumb 32.312 -51.8168
lclavicle 2.67117e-015 3.47873e-015
lhumerus -92.0798 -38.1513 110.768
lradius 94.1311
lwrist 46.8347
lhand 7.10648 36.8129
lfingers 7.12502
lthumb 32.377 63.9425
rfemur -71.7063 0.467932 20.5541
rtibia 72.4955
rfoot -8.43639 -9.99944
rtoes -8.97797
lfemur -64.9049 -6.74375 -23.0731
ltibia 41.4338
lfoot -14.3756 10.151
ltoes -13.7728
